<?xml version="1.0" encoding="UTF-8" standalone="no"?>
<!-- Created with Inkscape (http://www.inkscape.org/) -->

<svg
   width="16"
   height="16"
   viewBox="0 0 4.2333332 4.2333335"
   version="1.1"
   id="svg982"
   inkscape:version="1.1.1 (3bf5ae0d25, 2021-09-20)"
   sodipodi:docname="favicon.svg"
   xmlns:inkscape="http://www.inkscape.org/namespaces/inkscape"
   xmlns:sodipodi="http://sodipodi.sourceforge.net/DTD/sodipodi-0.dtd"
   xmlns="http://www.w3.org/2000/svg"
   xmlns:svg="http://www.w3.org/2000/svg">
  <sodipodi:namedview
     id="namedview984"
     pagecolor="#ffffff"
     bordercolor="#666666"
     borderopacity="1.0"
     inkscape:pageshadow="2"
     inkscape:pageopacity="0.0"
     inkscape:pagecheckerboard="true"
     inkscape:document-units="mm"
     showgrid="false"
     units="px"
     inkscape:zoom="12.429181"
     inkscape:cx="8.2064943"
     inkscape:cy="16.533672"
     inkscape:window-width="1920"
     inkscape:window-height="1017"
     inkscape:window-x="1912"
     inkscape:window-y="-8"
     inkscape:window-maximized="1"
     inkscape:current-layer="layer1" />
  <defs
     id="defs979" />
  <g
     inkscape:label="Warstwa 1"
     inkscape:groupmode="layer"
     id="layer1">
    <path
       id="path81"
       style="fill:#ffffff;stroke-width:0.0563815"
       d="M 2.1687726,0.02417886 A 2.0931706,2.0931706 0 0 0 2.0249277,0.02589321 V 1.2452659 c -0.011132,-0.00137 -0.022219,-0.00254 -0.03339,-0.00414 C 1.4372658,1.1619437 0.98441095,0.94247569 0.57986673,0.69762049 A 2.0931706,2.0931706 0 0 0 0.43459462,0.87135825 C 0.8593812,1.1312051 1.3510511,1.3756885 1.9599543,1.4626751 c 0.021756,0.0031 0.043381,0.00567 0.064973,0.00804 V 2.0349913 H 0.02520385 a 2.0931706,2.0931706 0 0 0 -6.2419e-4,0.1502246 2.0931706,2.0931706 0 0 0 0.0051321,0.073539 H 2.0249188 v 0.513697 c -0.021591,0.00238 -0.043217,0.00494 -0.064973,0.00804 C 1.3537413,2.867091 0.86367656,3.1098052 0.4401802,3.3683695 A 2.0931706,2.0931706 0 0 0 0.58548191,3.5421047 C 0.98861066,3.298635 1.4398056,3.0808569 1.9915295,3.0020401 c 0.011172,-0.00159 0.022258,-0.00276 0.03339,-0.00414 v 1.2090883 a 2.0931706,2.0931706 0 0 0 0.1259547,0.0026 2.0931706,2.0931706 0 0 0 0.097809,-0.00521 V 2.9841756 c 0.5419948,9.461e-4 1.0271047,0.2459958 1.4150799,0.542135 a 2.0931706,2.0931706 0 0 0 9.525e-4,-0.00105 2.0931706,2.0931706 0 0 0 0.09478,-0.1117945 2.0931706,2.0931706 0 0 0 0.00553,-0.00704 2.0931706,2.0931706 0 0 0 0.039479,-0.054222 C 3.3926608,3.0366708 2.8642154,2.7645164 2.2617535,2.760128 c -0.00434,-2.19e-5 -0.00874,9.46e-5 -0.013081,9.46e-5 V 2.2587107 H 4.2045278 A 2.0931706,2.0931706 0 0 0 4.2098078,2.116614 L 4.2071478,2.034942 H 2.2486925 V 1.4828452 C 2.8588118,1.4823689 3.3936525,1.2066344 3.8091319,0.88736207 A 2.0931706,2.0931706 0 0 0 3.6689873,0.71286612 C 3.2801605,1.0107722 2.7930861,1.2579986 2.2486925,1.2589348 V 0.02913101 a 2.0931706,2.0931706 0 0 0 -0.07992,-0.0049538 z" />
  </g>
</svg>
