<?xml version="1.0" encoding="UTF-8" standalone="no"?>
<!-- Created with Inkscape (http://www.inkscape.org/) -->

<svg
   width="142"
   height="50"
   viewBox="0 0 37.570851 13.229171"
   version="1.1"
   id="svg5"
   sodipodi:docname="logo.svg"
   inkscape:version="1.1.1 (3bf5ae0d25, 2021-09-20)"
   xmlns:inkscape="http://www.inkscape.org/namespaces/inkscape"
   xmlns:sodipodi="http://sodipodi.sourceforge.net/DTD/sodipodi-0.dtd"
   xmlns="http://www.w3.org/2000/svg"
   xmlns:svg="http://www.w3.org/2000/svg">
  <sodipodi:namedview
     id="namedview7"
     pagecolor="#ffffff"
     bordercolor="#666666"
     borderopacity="1.0"
     inkscape:pageshadow="2"
     inkscape:pageopacity="0"
     inkscape:pagecheckerboard="true"
     inkscape:document-units="px"
     showgrid="false"
     inkscape:zoom="5.9295174"
     inkscape:cx="69.482889"
     inkscape:cy="20.490706"
     inkscape:window-width="1920"
     inkscape:window-height="1017"
     inkscape:window-x="1912"
     inkscape:window-y="-8"
     inkscape:window-maximized="1"
     inkscape:current-layer="layer1"
     units="px"
     width="80px"
     height="79px" />
  <defs
     id="defs2">
    <rect
       x="85.861435"
       y="4.2930717"
       width="112.57388"
       height="73.459229"
       id="rect32403" />
    <rect
       x="82.522385"
       y="2.8620479"
       width="115.43593"
       height="75.844269"
       id="rect27161" />
    <rect
       x="87.76947"
       y="4.7700796"
       width="109.23483"
       height="72.028206"
       id="rect19851" />
    <rect
       x="85.861435"
       y="5.7240958"
       width="110.18884"
       height="69.643166"
       id="rect14059" />
    <rect
       x="84.998489"
       y="802.76349"
       width="653.00421"
       height="107.93459"
       id="rect9577" />
  </defs>
  <g
     inkscape:label="Warstwa 1"
     inkscape:groupmode="layer"
     id="layer1">
    <path
       id="path81"
       style="fill:#ffffff;stroke-width:0.171642"
       d="m 6.6646393,0.24443191 a 6.37224,6.37224 0 0 0 -0.437907,0.005212 V 3.9617807 c -0.03389,-0.00417 -0.06764,-0.00774 -0.101648,-0.012613 C 4.4377133,3.7081181 3.0590873,3.0399906 1.8275333,2.2945778 a 6.37224,6.37224 0 0 0 -0.442252,0.5289098 c 1.293178,0.791052 2.789969,1.5353332 4.643653,1.8001464 0.06623,0.00944 0.132065,0.017248 0.197798,0.024478 V 6.3659463 H 0.13897333 a 6.37224,6.37224 0 0 0 -0.0019,0.4573287 6.37224,6.37224 0 0 0 0.01561,0.2238764 H 6.2266933 v 1.5638479 c -0.06573,0.00726 -0.131568,0.015026 -0.197799,0.024479 -1.845468,0.2636343 -3.337372,1.0025282 -4.626622,1.7896757 a 6.37224,6.37224 0 0 0 0.442341,0.52891 c 1.227245,-0.741195 2.600818,-1.404177 4.280431,-1.6441192 0.03401,-0.00483 0.06776,-0.00841 0.101649,-0.012612 v 3.6808282 a 6.37224,6.37224 0 0 0 0.383444,0.0079 6.37224,6.37224 0 0 0 0.297761,-0.01586 V 9.2555571 c 1.649995,0.00288 3.1268157,0.7488849 4.3079287,1.6504219 a 6.37224,6.37224 0 0 0 0.0029,-0.0032 6.37224,6.37224 0 0 0 0.288538,-0.340336 6.37224,6.37224 0 0 0 0.01686,-0.02144 6.37224,6.37224 0 0 0 0.120187,-0.165068 C 10.390523,9.4153629 8.7817763,8.5868433 6.9477013,8.5734831 c -0.01322,-6.65e-5 -0.02659,2.883e-4 -0.03982,2.883e-4 V 7.0470185 h 5.9542117 a 6.37224,6.37224 0 0 0 0.01605,-0.4325848 l -0.0081,-0.2486366 H 6.9079393 V 4.6850505 C 8.7653263,4.6836005 10.393542,3.8441821 11.658386,2.872221 A 6.37224,6.37224 0 0 0 11.231744,2.341003 C 10.048038,3.2479188 8.5652373,4.0005501 6.9079393,4.0034002 V 0.25950766 a 6.37224,6.37224 0 0 0 -0.2433,-0.0150871 z" />
    <text
       xml:space="preserve"
       transform="scale(0.26458333)"
       id="text9575"
       style="font-style:normal;font-weight:normal;font-size:40px;line-height:1.25;font-family:sans-serif;white-space:pre;shape-inside:url(#rect9577);fill:#000000;fill-opacity:1;stroke:none" />
    <text
       xml:space="preserve"
       transform="scale(0.26458333)"
       id="text14057"
       style="font-style:normal;font-weight:normal;font-size:16px;line-height:1.15;font-family:sans-serif;white-space:pre;shape-inside:url(#rect14059);fill:#000000;fill-opacity:1;stroke:none" />
    <text
       xml:space="preserve"
       transform="scale(0.26458333)"
       id="text19849"
       style="font-style:normal;font-weight:normal;font-size:40px;line-height:1.25;font-family:sans-serif;white-space:pre;shape-inside:url(#rect19851);fill:#000000;fill-opacity:1;stroke:none"><tspan
         x="87.769531"
         y="112.18945"
         id="tspan960"><tspan
           dx="0 27.441406 27.363281 25.390625 26.230469 25.273438 24.433594 12.714844 22.285156 25.273438 27.363281 29.277344 30.996094"
           id="tspan958">BASKET LEAUGE</tspan></tspan></text>
    <text
       xml:space="preserve"
       transform="scale(0.26458333)"
       id="text27159"
       style="font-style:normal;font-weight:normal;font-size:40px;line-height:1.25;font-family:sans-serif;white-space:pre;shape-inside:url(#rect27161);fill:#000000;fill-opacity:1;stroke:none" />
    <text
       xml:space="preserve"
       transform="matrix(0.20724692,0,0,0.20724692,-2.2345221,-1.0017383)"
       id="text32401"
       style="font-style:normal;font-weight:normal;font-size:28px;line-height:1.25;font-family:sans-serif;white-space:pre;shape-inside:url(#rect32403);fill:#000000;fill-opacity:1;stroke:none"><tspan
         x="85.861328"
         y="29.066406"
         id="tspan964"><tspan
           style="font-family:Roboto;-inkscape-font-specification:Roboto;fill:#ffffff"
           id="tspan962">BASKET
</tspan></tspan><tspan
         x="85.861328"
         y="64.339844"
         id="tspan968"><tspan
           style="font-family:Roboto;-inkscape-font-specification:Roboto;fill:#ffffff"
           id="tspan966">LEAUGE</tspan></tspan></text>
  </g>
</svg>
